<?xml version="1.0" encoding="UTF-8" standalone="no"?>
<!-- Created with Inkscape (http://www.inkscape.org/) -->

<svg
   version="1.1"
   id="svg1"
   width="254.20013"
   height="235.12746"
   viewBox="0 0 254.20013 235.12746"
   xmlns="http://www.w3.org/2000/svg"
   xmlns:svg="http://www.w3.org/2000/svg">
  <defs
     id="defs1">
    <clipPath
       clipPathUnits="userSpaceOnUse"
       id="clipPath2">
      <path
         d="M -144.10351,127.3744 H 22.026598 V -43.934601 H -144.10351 Z"
         id="path2" />
    </clipPath>
    <clipPath
       clipPathUnits="userSpaceOnUse"
       id="clipPath4">
      <path
         d="M 0,0 H 666.66533 V 666.66667 H 0 Z"
         id="path4" />
    </clipPath>
    <clipPath
       clipPathUnits="userSpaceOnUse"
       id="clipPath5">
      <path
         d="M -31.122998,15.5619 H 2.0250001e-4 v -31.123 H -31.122998 Z"
         id="path5" />
    </clipPath>
    <clipPath
       clipPathUnits="userSpaceOnUse"
       id="clipPath7">
      <path
         d="M 0,0 H 666.66533 V 666.66667 H 0 Z"
         id="path7" />
    </clipPath>
    <linearGradient
       x1="0"
       y1="0"
       x2="1"
       y2="0"
       gradientUnits="userSpaceOnUse"
       gradientTransform="matrix(110.5,-66,-66,-110.5,95.785393,401.28156)"
       spreadMethod="pad"
       id="linearGradient8">
      <stop
         style="stop-opacity:1;stop-color:#80eaf2"
         offset="0"
         id="stop7" />
      <stop
         style="stop-opacity:1;stop-color:#5184dd"
         offset="1"
         id="stop8" />
    </linearGradient>
    <clipPath
       clipPathUnits="userSpaceOnUse"
       id="clipPath8">
      <path
         d="M 55.257601,453.31201 H 205.66201 v -150.183 H 55.257601 Z"
         id="path8" />
    </clipPath>
    <clipPath
       clipPathUnits="userSpaceOnUse"
       id="clipPath10">
      <path
         d="M 0,0 H 666.66533 V 666.66667 H 0 Z"
         id="path10" />
    </clipPath>
    <linearGradient
       x1="0"
       y1="0"
       x2="1"
       y2="0"
       gradientUnits="userSpaceOnUse"
       gradientTransform="matrix(-66,-195,-195,66,167.55797,477.67279)"
       spreadMethod="pad"
       id="linearGradient11">
      <stop
         style="stop-opacity:1;stop-color:#80eaf2"
         offset="0"
         id="stop10" />
      <stop
         style="stop-opacity:1;stop-color:#5184dd"
         offset="1"
         id="stop11" />
    </linearGradient>
    <clipPath
       clipPathUnits="userSpaceOnUse"
       id="clipPath14">
      <path
         d="M -19.564598,9.7819027 H -5.9750002e-4 V -9.7820977 H -19.564598 Z"
         id="path14" />
    </clipPath>
    <clipPath
       clipPathUnits="userSpaceOnUse"
       id="clipPath16">
      <path
         d="M 0,0 H 666.66533 V 666.66667 H 0 Z"
         id="path16" />
    </clipPath>
  </defs>
  <g
     id="layer-MC1"
     transform="translate(-219.45441,-59.796683)">
    <g
       id="g93"
       transform="translate(159.50921,-2.4539878)">
      <g
         opacity="0.100006"
         id="g3"
         clip-path="url(#clipPath4)">
        <path
           d="m 0,0 c -27.953,-39.195 -68.347,-58.724 -107.541,-30.771 -39.196,27.954 -48.31,82.388 -20.356,121.583 27.953,39.195 82.387,48.309 121.583,20.355 C 32.881,83.214 27.953,39.195 0,0"
           style="fill:#ffffff;fill-opacity:1;fill-rule:nonzero;stroke:none"
           transform="matrix(1.3333333,0,0,-1.3333333,275.54587,238.7992)"
           clip-path="url(#clipPath2)"
           id="path3" />
      </g>
      <g
         opacity="0.5"
         id="g6"
         clip-path="url(#clipPath7)">
        <path
           d="m 0,0 c 0,-8.594 -6.967,-15.562 -15.562,-15.562 -8.594,0 -15.561,6.968 -15.561,15.562 0,8.595 6.967,15.562 15.561,15.562 C -6.967,15.562 0,8.595 0,0"
           style="fill:#80eaf2;fill-opacity:1;fill-rule:nonzero;stroke:none"
           transform="matrix(1.3333333,0,0,-1.3333333,148.27173,106.9092)"
           clip-path="url(#clipPath5)"
           id="path6" />
      </g>
      <g
         opacity="0.800003"
         id="g9"
         clip-path="url(#clipPath10)">
        <path
           d="m 181.515,326.952 c -32.069,-31.89 -83.919,-31.745 -115.809,0.325 -31.89,32.068 16.429,35.473 48.498,67.364 32.07,31.89 35.745,80.189 67.635,48.12 31.89,-32.069 31.745,-83.919 -0.324,-115.809"
           transform="matrix(1.3333333,0,0,-1.3333333,0,666.66667)"
           style="fill:url(#linearGradient8);stroke:none"
           opacity="1"
           clip-path="url(#clipPath8)"
           id="path9" />
      </g>
      <path
         id="path11"
         d="M 49.503,413.014 C 38.419,387.153 90.909,369.08 94.357,333.109 v 0 c 5.061,-52.799 47.954,-49.752 72.795,-45.604 v 0 c 29.925,4.997 49.542,23.148 44.082,56.586 v 0 c -3.683,22.56 28.62,41.75 21.837,62.1 v 0 c -8.189,24.566 -56.639,4.757 -86.665,4.757 v 0 c -20.477,0 -52.379,14.29 -74.496,14.29 v 0 C 61.595,425.239 53.409,422.13 49.503,413.014"
         transform="matrix(1.3333333,0,0,-1.3333333,0,666.66667)"
         style="fill:url(#linearGradient11);stroke:none" />
      <path
         id="path12"
         d="m 0,0 c 0,-7.452 -6.041,-13.493 -13.493,-13.493 -7.452,0 -13.493,6.041 -13.493,13.493 0,7.452 6.041,13.493 13.493,13.493 C -6.041,13.493 0,7.452 0,0"
         style="fill:#80eaf2;fill-opacity:1;fill-rule:nonzero;stroke:none"
         transform="matrix(1.3333333,0,0,-1.3333333,278.47547,262.708)" />
      <path
         id="path13"
         d="m 0,0 c 0,-5.687 -4.611,-10.298 -10.298,-10.298 -5.688,0 -10.299,4.611 -10.299,10.298 0,5.687 4.611,10.298 10.299,10.298 C -4.611,10.298 0,5.687 0,0"
         style="fill:#5184dd;fill-opacity:1;fill-rule:nonzero;stroke:none"
         transform="matrix(1.3333333,0,0,-1.3333333,87.407867,205.47893)" />
      <g
         opacity="0.75"
         id="g15"
         clip-path="url(#clipPath16)">
        <path
           d="m 0,0 c 0,-5.402 -4.38,-9.782 -9.782,-9.782 -5.403,0 -9.782,4.38 -9.782,9.782 0,5.402 4.379,9.782 9.782,9.782 C -4.38,9.782 0,5.402 0,0"
           style="fill:#5184dd;fill-opacity:1;fill-rule:nonzero;stroke:none"
           transform="matrix(1.3333333,0,0,-1.3333333,314.14613,192.43587)"
           clip-path="url(#clipPath14)"
           id="path15" />
      </g>
    </g>
  </g>
</svg>
